<svg width="1081" height="1080" viewBox="0 0 1081 1080" fill="none" xmlns="http://www.w3.org/2000/svg">
<g filter="url(#filter0_d_8_687)">
<circle cx="540.142" cy="540" r="471.969" fill="#94E292"/>
<circle opacity="0.8" cx="540.142" cy="540" r="392.068" fill="#39B136"/>
<circle opacity="0.8" cx="540.142" cy="540" r="356.764" fill="#5ECC5C"/>
<g clip-path="url(#clip0_8_687)">
<path d="M498.3 361.08C413.58 402.401 346.533 548.763 346.533 548.763C346.533 548.763 503.146 586.039 587.866 544.718C672.586 503.398 739.633 357.036 739.633 357.036C739.633 357.036 583.02 319.76 498.3 361.08Z" fill="#94E292"/>
<path d="M651.966 605.255C706.974 632.084 750.506 727.115 750.506 727.115C750.506 727.115 648.82 751.318 593.812 724.489C538.805 697.66 495.272 602.629 495.272 602.629C495.272 602.629 596.959 578.426 651.966 605.255Z" fill="#94E292"/>
<path d="M455.211 664.625C455.211 692.595 432.537 715.268 404.568 715.268C376.599 715.268 353.925 692.595 353.925 664.625C353.925 636.656 376.599 613.983 404.568 613.983C432.537 613.983 455.211 636.656 455.211 664.625Z" fill="#94E292" stroke="#94E292" stroke-width="41.078"/>
</g>
</g>
<defs>
<filter id="filter0_d_8_687" x="68.1733" y="68.0315" width="967.937" height="967.937" filterUnits="userSpaceOnUse" color-interpolation-filters="sRGB">
<feFlood flood-opacity="0" result="BackgroundImageFix"/>
<feColorMatrix in="SourceAlpha" type="matrix" values="0 0 0 0 0 0 0 0 0 0 0 0 0 0 0 0 0 0 127 0" result="hardAlpha"/>
<feOffset dx="24" dy="24"/>
<feComposite in2="hardAlpha" operator="out"/>
<feColorMatrix type="matrix" values="0 0 0 0 0.109804 0 0 0 0 0.294118 0 0 0 0 0.113725 0 0 0 1 0"/>
<feBlend mode="normal" in2="BackgroundImageFix" result="effect1_dropShadow_8_687"/>
<feBlend mode="normal" in="SourceGraphic" in2="effect1_dropShadow_8_687" result="shape"/>
</filter>
<clipPath id="clip0_8_687">
<rect width="430.2" height="417.547" fill="white" transform="translate(321.658 331.227)"/>
</clipPath>
</defs>
</svg>
