<svg width="1080" height="1080" viewBox="0 0 1080 1080" fill="none" xmlns="http://www.w3.org/2000/svg">
<g clip-path="url(#clip0_31_39)">
<path d="M72.3464 810C221.479 1068.31 551.694 1156.79 810 1007.65C1068.31 858.521 1156.79 528.306 1007.65 270C858.521 11.6943 528.306 -76.7866 270 72.3462C11.6945 221.479 -76.7864 551.694 72.3464 810ZM388.181 318.807C401.778 317.045 415.02 323.527 421.875 335.401L489.375 452.315L664.745 351.065C697.024 332.428 738.316 343.492 756.952 375.772L790.702 434.228C809.338 466.507 798.274 507.799 765.995 526.435L590.625 627.685L658.125 744.598C664.948 756.416 664 771.19 655.674 782.013C647.362 792.862 633.351 797.602 620.156 794.07L297.433 707.596C279.43 702.772 268.743 684.263 273.576 666.275L360.049 343.551C363.638 330.297 374.583 320.568 388.181 318.807Z" fill="#5AC958"/>
<path d="M388.181 318.807C401.778 317.045 415.02 323.527 421.875 335.401L489.375 452.315L664.745 351.065C697.024 332.428 738.316 343.492 756.952 375.772L790.702 434.228C809.338 466.507 798.274 507.799 765.995 526.435L590.625 627.685L658.125 744.598C664.948 756.416 664 771.19 655.674 782.013C647.362 792.862 633.351 797.602 620.156 794.07L297.433 707.596C279.43 702.772 268.743 684.263 273.576 666.275L360.049 343.551C363.638 330.297 374.583 320.568 388.181 318.807Z" fill="white"/>
</g>
<defs>
<clipPath id="clip0_31_39">
<rect width="1080" height="1080" fill="white"/>
</clipPath>
</defs>
</svg>
