<svg width="1080" height="1080" viewBox="0 0 1080 1080" fill="none" xmlns="http://www.w3.org/2000/svg">
<g clip-path="url(#clip0_31_34)">
<path d="M1007.65 270C858.521 11.6944 528.305 -76.7865 270 72.3464C11.6942 221.479 -76.7867 551.694 72.3462 810C221.479 1068.31 551.694 1156.79 810 1007.65C1068.31 858.521 1156.79 528.306 1007.65 270ZM691.819 761.193C678.222 762.955 664.98 756.473 658.125 744.599L590.625 627.685L415.255 728.935C382.976 747.571 341.684 736.508 323.048 704.228L289.298 645.772C270.662 613.493 281.726 572.201 314.005 553.565L489.375 452.315L421.875 335.402C415.052 323.584 416 308.81 424.326 297.987C432.638 287.138 446.649 282.398 459.844 285.93L782.567 372.404C800.57 377.228 811.257 395.736 806.424 413.725L719.951 736.449C716.362 749.703 705.417 759.432 691.819 761.193Z" fill="#8ACCD0"/>
<path d="M691.819 761.193C678.222 762.955 664.98 756.473 658.125 744.599L590.625 627.685L415.255 728.935C382.976 747.571 341.684 736.508 323.048 704.228L289.298 645.772C270.662 613.493 281.726 572.201 314.005 553.565L489.375 452.315L421.875 335.402C415.052 323.584 416 308.81 424.326 297.987C432.638 287.138 446.649 282.398 459.844 285.93L782.567 372.404C800.57 377.228 811.257 395.736 806.424 413.725L719.951 736.449C716.362 749.703 705.417 759.432 691.819 761.193Z" fill="white"/>
</g>
<defs>
<clipPath id="clip0_31_34">
<rect width="1080" height="1080" fill="white"/>
</clipPath>
</defs>
</svg>
