<svg width="1080" height="1080" viewBox="0 0 1080 1080" fill="none" xmlns="http://www.w3.org/2000/svg">
<g clip-path="url(#clip0_31_26)">
<path fill-rule="evenodd" clip-rule="evenodd" d="M900.557 942L900.861 941.727L901 942H900.557ZM179.139 941.727L179.443 942H179L179.139 941.727Z" fill="#8ACCD0"/>
<path d="M751.79 779.927C688.07 740.742 614.765 720 540 720C465.235 720 391.93 740.742 328.21 779.927C276.248 811.882 232.315 855.083 199.517 906.16C192.151 917.631 185.346 929.499 179.139 941.727L179.443 942C275.046 1027.8 401.427 1080 540 1080C678.573 1080 804.954 1027.8 900.557 942L900.861 941.727C894.654 929.499 887.849 917.631 880.483 906.16C847.685 855.083 803.752 811.882 751.79 779.927Z" fill="white"/>
<path fill-rule="evenodd" clip-rule="evenodd" d="M540 0C241.766 0 0 241.766 0 540C0 699.514 69.1639 842.874 179.139 941.727C185.346 929.499 192.151 917.631 199.517 906.16C232.315 855.083 276.248 811.882 328.21 779.927C391.93 740.742 465.235 720 540 720C614.765 720 688.07 740.742 751.79 779.927C803.752 811.882 847.685 855.083 880.483 906.16C887.849 917.631 894.654 929.499 900.861 941.727C1010.84 842.874 1080 699.514 1080 540C1080 241.766 838.234 0 540 0ZM540 657.5C667.025 657.5 770 554.525 770 427.5C770 300.475 667.025 197.5 540 197.5C412.975 197.5 310 300.475 310 427.5C310 554.525 412.975 657.5 540 657.5Z" fill="#8ACCD0"/>
<path d="M770 427.5C770 554.525 667.025 657.5 540 657.5C412.975 657.5 310 554.525 310 427.5C310 300.475 412.975 197.5 540 197.5C667.025 197.5 770 300.475 770 427.5Z" fill="white"/>
</g>
<defs>
<clipPath id="clip0_31_26">
<rect width="1080" height="1080" fill="white"/>
</clipPath>
</defs>
</svg>
