<svg width="1080" height="1080" viewBox="0 0 1080 1080" fill="none" xmlns="http://www.w3.org/2000/svg">
<path d="M0 216C0 156.6 48.6 108 108 108H918C932.322 108 946.057 113.689 956.184 123.816C966.311 133.943 972 147.678 972 162V216H124C115.163 216 108 223.163 108 232V254C108 262.837 115.163 270 124 270H1026C1040.32 270 1054.06 275.689 1064.18 285.816C1074.31 295.943 1080 309.678 1080 324V864C1080 892.643 1068.62 920.114 1048.37 940.367C1028.11 960.621 1000.64 972 972 972H108C79.3566 972 51.8864 960.621 31.6325 940.367C11.3785 920.114 0 892.643 0 864V216ZM891 702C912.483 702 933.085 693.466 948.276 678.276C963.466 663.085 972 642.483 972 621C972 599.517 963.466 578.915 948.276 563.724C933.085 548.534 912.483 540 891 540C869.517 540 848.915 548.534 833.724 563.724C818.534 578.915 810 599.517 810 621C810 642.483 818.534 663.085 833.724 678.276C848.915 693.466 869.517 702 891 702Z" fill="#8ACCD0"/>
<path d="M891 702C912.483 702 933.085 693.466 948.276 678.276C963.466 663.085 972 642.483 972 621C972 599.517 963.466 578.915 948.276 563.724C933.085 548.534 912.483 540 891 540C869.517 540 848.915 548.534 833.724 563.724C818.534 578.915 810 599.517 810 621C810 642.483 818.534 663.085 833.724 678.276C848.915 693.466 869.517 702 891 702Z" fill="white"/>
</svg>
