<svg width="1080" height="1080" viewBox="0 0 1080 1080" fill="none" xmlns="http://www.w3.org/2000/svg">
<path d="M522.48 536.932C522.48 537.683 522.48 538.433 522.48 539.184C522.48 540.311 522.48 541.312 522.48 542.438C522.48 542.813 522.48 543.189 522.48 543.439C522.48 543.94 522.48 544.315 522.48 544.816C522.48 545.567 522.48 546.443 522.605 547.194C522.605 547.569 522.605 548.07 522.73 548.445C522.73 548.946 522.73 549.446 522.855 549.822C525.608 598.503 546.508 643.805 581.924 678.095C605.326 700.621 633.233 716.89 663.643 725.775C681.539 731.031 700.311 733.784 719.458 733.784H1027.94V931.263C1027.94 982.322 986.392 1023.75 935.458 1023.75H92.1066C41.2978 1023.75 0 982.447 0 931.638V148.107C0 97.2978 41.2978 56 92.1066 56H935.458C986.517 56 1027.94 97.5481 1027.94 148.482V345.835H717.08C693.928 345.835 671.652 349.59 650.753 356.848C623.972 366.234 599.694 381.251 579.546 401.4C568.283 412.663 558.522 425.052 550.512 438.192C550.137 438.818 549.761 439.444 549.386 440.195C548.134 442.197 547.008 444.199 545.882 446.202C545.506 446.827 545.131 447.578 544.756 448.204C544.005 449.581 543.379 450.957 542.628 452.334C542.002 453.585 541.377 454.962 540.751 456.213C538.373 461.094 536.371 466.225 534.369 471.231C534.118 471.981 533.868 472.607 533.618 473.358C531.24 479.991 529.238 486.874 527.486 493.757C527.36 494.382 527.235 494.883 527.11 495.384C526.86 496.26 526.735 497.136 526.484 498.012C526.359 498.637 526.234 499.263 526.109 499.889C525.859 500.89 525.734 501.891 525.483 502.892C525.358 503.393 525.358 503.893 525.233 504.394C525.108 505.145 524.983 505.896 524.857 506.647C524.732 507.397 524.607 508.148 524.482 508.899C524.357 509.65 524.232 510.401 524.107 511.152C523.981 511.903 523.856 512.654 523.856 513.404C523.481 516.658 523.105 519.912 522.855 523.166C522.73 525.168 522.605 527.295 522.48 529.298C522.48 529.423 522.48 529.673 522.48 529.798C522.355 531.3 522.355 532.802 522.355 534.304C522.48 535.555 522.48 536.181 522.48 536.932Z" fill="white"/>
<path d="M1057.85 395.894H717.08C677.659 395.894 641.367 410.41 614.962 436.941C586.804 465.099 571.662 502.267 572.412 541.562C574.039 619.903 639.865 683.727 719.458 683.727H1052.59C1067.74 683.727 1080 671.462 1080 656.32V418.044C1080 405.78 1070.11 395.894 1057.85 395.894ZM716.204 595.75C683.916 595.75 658.762 570.471 658.762 538.308C658.762 506.021 684.042 480.867 716.204 480.867C748.491 480.867 773.645 506.146 773.645 538.308C773.645 570.471 748.366 595.75 716.204 595.75Z" fill="white"/>
</svg>
