<svg width="40" height="41" viewBox="0 0 40 41" fill="none" xmlns="http://www.w3.org/2000/svg">
<g clip-path="url(#clip0_5_223)">
<path d="M32.1482 8.35179C38.8582 15.0618 38.8582 25.9382 32.1482 32.6482C25.4382 39.3582 14.5618 39.3582 7.85178 32.6482C1.1418 25.9382 1.1418 15.0618 7.85178 8.35179C14.5618 1.64181 25.4382 1.64181 32.1482 8.35179ZM14.4526 14.013C14.2865 14.4164 14.3767 14.8767 14.6851 15.1852L17.7222 18.2222L13.1666 22.7778C12.3281 23.6163 12.3281 24.9763 13.1666 25.8148L14.6851 27.3334C15.5237 28.1719 16.8837 28.1719 17.7222 27.3334L22.2778 22.7778L25.3148 25.8148C25.6218 26.1218 26.0836 26.2143 26.4848 26.0476C26.8866 25.8815 27.1477 25.49 27.1478 25.0554L27.1478 14.4257C27.1478 13.8327 26.667 13.3519 26.0744 13.3523L15.4447 13.3523C15.0078 13.3534 14.6187 13.6097 14.4526 14.013Z" fill="#01AED6"/>
<path d="M14.4526 14.013C14.2865 14.4164 14.3767 14.8767 14.6851 15.1852L17.7222 18.2222L13.1666 22.7778C12.3281 23.6163 12.3281 24.9763 13.1666 25.8148L14.6851 27.3334C15.5237 28.1719 16.8837 28.1719 17.7222 27.3334L22.2778 22.7778L25.3148 25.8148C25.6218 26.1218 26.0836 26.2143 26.4848 26.0476C26.8866 25.8815 27.1477 25.49 27.1478 25.0554L27.1478 14.4257C27.1478 13.8327 26.667 13.3519 26.0744 13.3523L15.4447 13.3523C15.0078 13.3534 14.6187 13.6097 14.4526 14.013Z" fill="white"/>
</g>
<defs>
<clipPath id="clip0_5_223">
<rect width="40" height="40" fill="white" transform="matrix(-1 0 0 1 40 0.5)"/>
</clipPath>
</defs>
</svg>
