<svg width="48" height="48" viewBox="0 0 48 48" fill="none" xmlns="http://www.w3.org/2000/svg">
<path d="M24 48C37.2548 48 48 37.2548 48 24C48 10.7452 37.2548 0 24 0C10.7452 0 0 10.7452 0 24C0 37.2548 10.7452 48 24 48Z" fill="#008CEB"/>
<path d="M37.9842 24.1011V30.8559C37.9842 31.2954 37.7953 31.3877 37.4261 31.1723C36.9323 30.876 36.4183 30.6146 35.8879 30.39C34.2862 29.7519 32.5512 29.5209 30.8383 29.7176C28.9687 29.9602 27.1339 30.4204 25.3712 31.0888C23.6132 31.6821 21.8905 32.3238 20.0974 32.8204C18.6123 33.2614 17.0667 33.4646 15.518 33.4225C13.8017 33.3559 12.1337 32.8358 10.6837 31.915C10.5016 31.8053 10.3521 31.6488 10.2508 31.4618C10.1496 31.2748 10.1003 31.064 10.108 30.8515C10.108 26.4274 10.108 22.0033 10.108 17.5792C10.108 17.3639 10.108 17.109 10.3014 16.9991C10.4948 16.8892 10.6925 17.0694 10.8595 17.1793C12.4341 18.2439 14.2989 18.7964 16.1992 18.7614C17.558 18.7057 18.9018 18.4556 20.1897 18.0187C22.0179 17.4518 23.7846 16.7002 25.5821 16.063C26.9813 15.5253 28.416 15.0848 29.8758 14.7446C31.1287 14.4512 32.4288 14.4203 33.6942 14.6541C34.9596 14.8878 36.1629 15.381 37.2283 16.1026C37.4726 16.2522 37.6726 16.4642 37.8078 16.7168C37.9429 16.9694 38.0084 17.2534 37.9974 17.5397C37.9974 19.7371 37.9974 21.9345 37.9974 24.1319L37.9842 24.1011Z" fill="#FEFEFE"/>
</svg>
