<svg width="48" height="48" viewBox="0 0 48 48" fill="none" xmlns="http://www.w3.org/2000/svg">
<circle cx="24" cy="24" r="24" fill="white"/>
<circle opacity="0.8" cx="24" cy="24" r="19.937" fill="white"/>
<circle opacity="0.8" cx="23.9999" cy="24" r="18.1417" fill="white"/>
<g clip-path="url(#clip0_2_10)">
<path d="M22.0699 15.7466C18.1618 17.6527 15.069 24.4043 15.069 24.4043C15.069 24.4043 22.2934 26.1237 26.2015 24.2177C30.1095 22.3116 33.2023 15.56 33.2023 15.56C33.2023 15.56 25.9779 13.8405 22.0699 15.7466Z" fill="#5AC958"/>
<path d="M29.1583 27.0102C31.6958 28.2478 33.7039 32.6314 33.7039 32.6314C33.7039 32.6314 29.0132 33.7479 26.4757 32.5103C23.9383 31.2727 21.9302 26.889 21.9302 26.889C21.9302 26.889 26.6209 25.7726 29.1583 27.0102Z" fill="#5AC958"/>
<path d="M20.0822 29.7488C20.0822 31.039 19.0363 32.0849 17.7461 32.0849C16.4559 32.0849 15.41 31.039 15.41 29.7488C15.41 28.4587 16.4559 27.4127 17.7461 27.4127C19.0363 27.4127 20.0822 28.4587 20.0822 29.7488Z" fill="#5AC958" stroke="#5AC958" stroke-width="1.89489"/>
</g>
<defs>
<clipPath id="clip0_2_10">
<rect width="19.8447" height="19.261" fill="white" transform="translate(13.9216 14.3695)"/>
</clipPath>
</defs>
</svg>
