<svg width="40" height="41" viewBox="0 0 40 41" fill="none" xmlns="http://www.w3.org/2000/svg">
<g clip-path="url(#clip0_3_140)">
<path d="M7.85179 32.6482C1.14181 25.9382 1.14181 15.0618 7.85179 8.3518C14.5618 1.64181 25.4382 1.64182 32.1482 8.3518C38.8582 15.0618 38.8582 25.9382 32.1482 32.6482C25.4382 39.3582 14.5618 39.3582 7.85179 32.6482ZM25.5474 26.9869C25.7134 26.5836 25.6233 26.1233 25.3148 25.8148L22.2778 22.7778L26.8334 18.2222C27.6719 17.3837 27.6719 16.0237 26.8334 15.1852L25.3148 13.6666C24.4763 12.8281 23.1163 12.8281 22.2778 13.6666L17.7222 18.2222L14.6852 15.1852C14.3782 14.8782 13.9164 14.7856 13.5152 14.9524C13.1133 15.1185 12.8523 15.51 12.8522 15.9446L12.8522 26.5743C12.8522 27.1673 13.333 27.6481 13.9256 27.6477L24.5553 27.6477C24.9921 27.6466 25.3813 27.3903 25.5474 26.9869Z" fill="#5AC958"/>
<path d="M25.5474 26.9869C25.7134 26.5836 25.6233 26.1233 25.3148 25.8148L22.2778 22.7778L26.8334 18.2222C27.6719 17.3837 27.6719 16.0237 26.8334 15.1852L25.3148 13.6666C24.4763 12.8281 23.1163 12.8281 22.2778 13.6666L17.7222 18.2222L14.6852 15.1852C14.3782 14.8782 13.9164 14.7856 13.5152 14.9524C13.1133 15.1185 12.8523 15.51 12.8522 15.9446L12.8522 26.5743C12.8522 27.1673 13.333 27.6481 13.9256 27.6477L24.5553 27.6477C24.9921 27.6466 25.3813 27.3903 25.5474 26.9869Z" fill="white"/>
</g>
<defs>
<clipPath id="clip0_3_140">
<rect width="40" height="40" fill="white" transform="matrix(-1 0 0 1 40 0.5)"/>
</clipPath>
</defs>
</svg>
